<mxfile host="app.diagrams.net" modified="2023-04-17T09:14:07.198Z" agent="Mozilla/5.0 (Windows NT 10.0; Win64; x64; rv:109.0) Gecko/20100101 Firefox/112.0" version="21.1.8" etag="w0q1KGiOLgLaEiEkTLpl" type="github">
  <diagram name="Page-1" id="8W0tcNeGEt5MvnlnJrC4">
    <mxGraphModel>
      <root>
        <mxCell id="0" />
        <mxCell id="1" parent="0" />
      </root>
    </mxGraphModel>
  </diagram>
</mxfile>
